# AST/ASF file generated using VICON BodyLanguage
# -----------------------------------------------
:version 1.10
:name VICON
:units
  mass 1.0
  length 0.45
  angle deg
:documentation
   .ast/.asf automatically generated from VICON data using
   VICON BodyBuilder and BodyLanguage model FoxedUp or BRILLIANT.MOD
:root
   order TX TY TZ RX RY RZ
   axis XYZ
   position 0 0 0  
   orientation 0 0 0 
:bonedata
  begin
     id 1 
     name lhipjoint
     direction 0.722297 -0.617336 0.311742 
     length 2.6635 
     axis 0 0 0  XYZ
  end
  begin
     id 2 
     name lfemur
     direction 0.34202 -0.939693 0  
     length 7.39349  
     axis 0 0 20  XYZ
    dof rx ry rz
    limits (-160.0 20.0)
           (-70.0 70.0)
           (-60.0 70.0)
  end
  begin
     id 3 
     name ltibia
     direction 0.34202 -0.939693 0   
     length 7.36294   
     axis 0 0 20   XYZ
    dof rx
    limits (-10.0 170.0)
  end
  begin
     id 4 
     name lfoot
     direction 0.104879 -0.288152 0.951824   
     length 2.16981   
     axis -90 7.62852e-016 20   XYZ
    dof rx rz
    limits (-45.0 90.0)
           (-70.0 20.0)
  end
  begin
     id 5 
     name ltoes
     direction 1.53586e-011 -4.21895e-011 1   
     length 1.08218   
     axis -90 7.62852e-016 20   XYZ
    dof rx
    limits (-90.0 20.0)
  end
  begin
     id 6 
     name rhipjoint
     direction -0.75102 -0.589393 0.297631   
     length 2.78977  
     axis 0 0 0  XYZ 
  end
  begin
     id 7 
     name rfemur
     direction -0.34202 -0.939693 0   
     length 7.46076   
     axis 0 0 -20   XYZ
    dof rx ry rz
    limits (-160.0 20.0)
           (-70.0 70.0)
           (-70.0 60.0)
  end
  begin
     id 8 
     name rtibia
     direction -0.34202 -0.939693 0   
     length 7.31726   
     axis 0 0 -20   XYZ
    dof rx
    limits (-10.0 170.0)
 end
 begin
     id 9 
     name rfoot
     direction -0.107991 -0.296704 0.948844   
     length 2.09388  
     axis -90 -7.62852e-016 -20   XYZ
    dof rx rz
    limits (-45.0 90.0)
           (-20.0 70.0)
  end
  begin
     id 10 
     name rtoes
     direction -1.53559e-011 -4.21911e-011 1   
     length 1.04433   
     axis -90 -7.62852e-016 -20   XYZ
    dof rx
    limits (-90.0 20.0)
  end
  begin
     id 11 
     name lowerback
     direction 0.0165164 0.98272 0.184358   
     length 1.71896   
     axis 0 0 0   XYZ
    dof rx ry rz
    limits (-20.0 45.0)
           (-30.0 30.0)
           (-30.0 30.0)
  end
  begin
     id 12 
     name upperback
     direction -0.00887249 0.992297 0.123566   
     length 1.71504   
     axis 0 0 0   XYZ
    dof rx ry rz
    limits (-20.0 45.0)
           (-30.0 30.0)
           (-30.0 30.0)
  end
  begin
     id 13 
     name thorax
     direction -0.0157026 0.998908 0.0440032   
     length 1.77022   
     axis 0 0 0   XYZ
    dof rx ry rz
    limits (-20.0 45.0)
           (-30.0 30.0)
           (-30.0 30.0)
  end
  begin
     id 14 
     name lowerneck
     direction -0.0238856 0.998137 0.0561411   
     length 1.89341   
     axis 0 0 0   XYZ
    dof rx ry rz
    limits (-20.0 45.0)
           (-30.0 30.0)
           (-30.0 30.0)
  end
  begin
     id 15 
     name upperneck
     direction 0.0276574 0.952253 -0.304056   
     length 1.86999   
     axis 0 0 0   XYZ
    dof rx ry rz
    limits (-20.0 45.0)
           (-30.0 30.0)
           (-30.0 30.0)
  end
  begin
     id 16
     name head
     direction 0.00800083 0.994258 -0.106712  
     length 1.91492  
     axis 0 0 0   XYZ
    dof rx ry rz
    limits (-20.0 45.0)
           (-30.0 30.0)
           (-30.0 30.0)
  end
  begin
     id 17 
     name lclavicle
     direction 0.97203 0.225407 0.06595  
     length 3.34889  
     axis 0 0 0   XYZ
    dof ry rz
    limits (-20.0 10.0)
           (0.0 20.0)
  end
  begin
     id 18 
     name lhumerus
     direction 1 -4.48973e-011 2.20267e-027   
     length 4.85645   
     axis 180 -30 -90   XYZ
    dof rx ry rz
    limits (-60.0 90.0)
           (-90.0 90.0)
           (-90.0 90.0)
  end
  begin
     id 19
     name lradius
     direction 1 -4.4897e-011 4.60472e-027   
     length 2.79874   
     axis 180 -30 -90   XYZ
    dof rx
    limits (-10.0 170.0)
  end
  begin
     id 20
     name lwrist
     direction 1 -4.48952e-011 1.14928e-026   
     length 1.39937   
     axis -6.29373e-015 90 90   XYZ
    dof ry
    limits (-180.0 0.0)
 end
  begin
     id 21 
     name lhand
     direction 1 -4.48967e-011 2.29886e-026   
     length 0.573398   
     axis -1.46689e-014 90 90   XYZ
    dof rx rz
    limits (-90.0 90.0)
           (-45.0 45.0)
  end
  begin
     id 22 
     name lfingers
     direction 1 -4.48955e-011 4.59726e-026   
     length 0.462289   
     axis -2.93383e-014 90 90   XYZ
    dof rx
    limits (0.0 90.0)
  end
  begin
     id 23
     name lthumb
     direction 0.707107 -6.34866e-011 0.707107   
     length 0.663757   
     axis -90 45 5.69224e-014   XYZ
    dof rx rz
    limits (-45.0 45.0)
           (-45.0 45.0)
  end
  begin
     id 24 
     name rclavicle
     direction -0.981571 0.157346 0.108443   
     length 3.35257  
     axis 0 0 0   XYZ 
    dof ry rz
    limits (-10.0 20.0)
           (-20.0 0.0)
  end
  begin
     id 25 
     name rhumerus
     direction -1 -4.48967e-011 8.58308e-029  
     length 4.67018   
     axis 180 30 90   XYZ
    dof rx ry rz
    limits (-90.0 60.0)
           (-90.0 90.0)
           (-90.0 90.0)
  end
  begin
     id 26 
     name rradius
     direction -1 -4.48958e-011 4.52548e-027   
     length 2.65534   
     axis 180 30 90   XYZ
    dof rx
    limits (-10.0 170.0)
  end
  begin
     id 27 
     name rwrist
     direction -1 -4.48977e-011 1.14952e-026   
     length 1.32767   
     axis -6.29373e-015 -90 -90   XYZ
    dof ry
    limits (-180.0 0.0)
  end
  begin
     id 28
     name rhand
     direction -1 -4.48924e-011 2.29804e-026   
     length 0.594069   
     axis -1.46689e-014 -90 -90   XYZ
    dof rx rz
    limits (-90.0 90.0)
           (-45.0 45.0)
  end
  begin
     id 29
     name rfingers
     direction -1 -4.48998e-011 4.59888e-026   
     length 0.478954   
     axis -2.93383e-014 -90 -90   XYZ
    dof rx
    limits (0.0 90.0)
  end
  begin
     id 30
     name rthumb
     direction -0.707107 -6.34933e-011 0.707107   
     length 0.687685   
     axis -90 -45 -5.69224e-014   XYZ
    dof rx rz
    limits (-45.0 45.0)
           (-45.0 45.0)
  end
:hierarchy
  begin
    root lhipjoint rhipjoint lowerback
    lhipjoint lfemur
    lfemur ltibia
    ltibia lfoot
    lfoot ltoes
    rhipjoint rfemur
    rfemur rtibia
    rtibia rfoot
    rfoot rtoes
    lowerback upperback
    upperback thorax
    thorax lowerneck lclavicle rclavicle
    lowerneck upperneck
    upperneck head
    lclavicle lhumerus
    lhumerus lradius
    lradius lwrist
    lwrist lhand lthumb
    lhand lfingers
    rclavicle rhumerus
    rhumerus rradius
    rradius rwrist
    rwrist rhand rthumb
    rhand rfingers
  end

#!OML:ASF E:\pregnant2\Project 1\Capture day 1\Session 1\pregnant2.ASF
:FULLY-SPECIFIED
:DEGREES
557
root 6.88273 22.24 -7.48869 -149.971 4.45155 178.481
lowerback -2.179 -4.1919 -8.4947
upperback -15.2132 -3.44006 4.45637
thorax -14.8798 0.893575 9.883
lowerneck -9.70354 -4.86889 -5.28262
upperneck 48.2513 9.03054 -8.05922
head 22.2433 4.55651 -0.235288
rclavicle -3.01656e-014 1.90833e-014
rhumerus -55.5374 24.6906 -89.7988
rradius 51.5629
rwrist 0.0658738
rhand -12.6328 -16.6313
rfingers 7.12502
rthumb 13.4471 -46.1772
lclavicle -3.01656e-014 1.90833e-014
lhumerus -56.0253 10.881 83.8069
lradius 39.2126
lwrist 0.917649
lhand -10.6717 27.9886
lfingers 7.12502
lthumb 15.3367 57.3998
rfemur -51.4248 10.5231 21.846
rtibia 42.9194
rfoot -21.3103 -16.9164
rtoes 9.02903
lfemur -69.4501 -1.60869 -24.0506
ltibia 60.9967
lfoot -9.6376 11.145
ltoes -18.1418
558
root 6.87651 22.2656 -7.56238 -150.015 4.52209 178.449
lowerback -2.28868 -4.20513 -8.53356
upperback -15.2433 -3.43348 4.48128
thorax -14.8479 0.909649 9.92679
lowerneck -9.65311 -4.84879 -5.30996
upperneck 48.2307 9.12505 -8.13451
head 22.2264 4.58961 -0.248869
rclavicle 1.64991e-014 1.35174e-014
rhumerus -55.6011 24.8479 -89.9088
rradius 51.3728
rwrist 0.120582
rhand -12.5373 -16.6364
rfingers 7.12502
rthumb 13.5392 -46.1763
lclavicle 1.64991e-014 1.35174e-014
lhumerus -56.1178 11.0658 83.7526
lradius 39.2461
lwrist 0.950925
lhand -10.5355 28.154
lfingers 7.12502
lthumb 15.468 57.5552
rfemur -50.8321 10.6357 21.7283
rtibia 42.4285
rfoot -21.4155 -17.0337
rtoes 9.01542
lfemur -69.0795 -1.83228 -23.7268
ltibia 58.5883
lfoot -9.47518 11.1188
ltoes -18.3106
559
root 6.86969 22.2913 -7.6372 -150.05 4.59498 178.434
lowerback -2.41476 -4.21863 -8.55199
upperback -15.2762 -3.42187 4.51206
thorax -14.8105 0.926542 9.96423
lowerneck -9.59424 -4.82696 -5.32657
upperneck 48.2106 9.23096 -8.22345
head 22.2106 4.62939 -0.269206
rclavicle -1.91827e-014 -9.54166e-015
rhumerus -55.6729 25.0052 -90.0188
rradius 51.1661
rwrist 0.176326
rhand -12.4625 -16.6317
rfingers 7.12502
rthumb 13.6113 -46.1667
lclavicle -1.91827e-014 -9.54166e-015
lhumerus -56.2236 11.2554 83.6913
lradius 39.2611
lwrist 0.971474
lhand -10.4517 28.2502
lfingers 7.12502
lthumb 15.5486 57.6451
rfemur -50.2293 10.7503 21.629
rtibia 41.9097
rfoot -21.5033 -17.1474
rtoes 8.97154
lfemur -68.6508 -2.06933 -23.3541
ltibia 56.1218
lfoot -9.2478 11.0635
ltoes -18.5121
560
root 6.86229 22.3169 -7.7134 -150.079 4.67252 178.431
lowerback -2.5571 -4.2313 -8.55577
upperback -15.3053 -3.40656 4.54531
thorax -14.7592 0.942177 9.99465
lowerneck -9.54415 -4.80479 -5.32875
upperneck 48.1945 9.34688 -8.32681
head 22.2058 4.67452 -0.297494
rclavicle -2.61402e-014 9.54166e-015
rhumerus -55.7356 25.1577 -90.1247
rradius 50.9351
rwrist 0.238069
rhand -12.4082 -16.6027
rfingers 7.12502
rthumb 13.6637 -46.1342
lclavicle -2.61402e-014 9.54166e-015
lhumerus -56.327 11.4458 83.6246
lradius 39.2343
lwrist 0.956336
lhand -10.4523 28.2401
lfingers 7.12502
lthumb 15.548 57.6351
rfemur -49.6162 10.8752 21.5369
rtibia 41.3668
rfoot -21.5769 -17.264
rtoes 8.90492
lfemur -68.1657 -2.32603 -22.9351
ltibia 53.6227
lfoot -8.961 11.0017
ltoes -18.6966
561
root 6.85431 22.3424 -7.79087 -150.117 4.7587 178.436
lowerback -2.71139 -4.24121 -8.5497
upperback -15.3288 -3.38651 4.58027
thorax -14.6947 0.9572 10.0202
lowerneck -9.486 -4.77927 -5.34506
upperneck 48.1774 9.45615 -8.40767
head 22.1924 4.71646 -0.312902
rclavicle -2.09718e-014 -5.725e-014
rhumerus -55.7895 25.3033 -90.2227
rradius 50.6832
rwrist 0.312122
rhand -12.3559 -16.5759
rfingers 7.12502
rthumb 13.714 -46.104
lclavicle -2.09718e-014 -5.725e-014
lhumerus -56.4351 11.6408 83.5503
lradius 39.2044
lwrist 0.952877
lhand -10.4489 28.2134
lfingers 7.12502
lthumb 15.5513 57.6081
rfemur -48.9831 11.0118 21.4495
rtibia 40.8071
rfoot -21.6398 -17.3815
rtoes 8.82376
lfemur -67.6169 -2.60711 -22.4694
ltibia 51.1193
lfoot -8.62934 10.9667
ltoes -18.7963
562
root 6.8457 22.3668 -7.86953 -150.136 4.84867 178.46
lowerback -2.89504 -4.25121 -8.52119
upperback -15.3486 -3.36192 4.61806
thorax -14.6082 0.970034 10.0336
lowerneck -9.45362 -4.7542 -5.3613
upperneck 48.1701 9.55797 -8.47195
head 22.1945 4.75474 -0.320819
rclavicle -2.33572e-015 -3.97569e-015
rhumerus -55.8254 25.4403 -90.3121
rradius 50.4136
rwrist 0.400201
rhand -12.3094 -16.5361
rfingers 7.12502
rthumb 13.7589 -46.0611
lclavicle -2.33572e-015 -3.97569e-015
lhumerus -56.5302 11.837 83.4676
lradius 39.175
lwrist 0.964994
lhand -10.4348 28.2079
lfingers 7.12502
lthumb 15.5649 57.6015
rfemur -48.3626 11.1589 21.3746
rtibia 40.2368
rfoot -21.6887 -17.4976
rtoes 8.74012
lfemur -67.0456 -2.91659 -21.9423
ltibia 48.6418
lfoot -8.24252 10.9824
ltoes -18.8113
563
root 6.83658 22.3896 -7.94905 -150.145 4.94306 178.495
lowerback -3.09339 -4.26147 -8.47977
upperback -15.3672 -3.33511 4.65828
thorax -14.5119 0.981926 10.0414
lowerneck -9.43094 -4.72694 -5.37628
upperneck 48.1683 9.65594 -8.52193
head 22.2025 4.79208 -0.32215
rclavicle -1.52567e-014 2.62396e-014
rhumerus -55.8566 25.5671 -90.3966
rradius 50.131
rwrist 0.486852
rhand -12.2763 -16.4869
rfingers 7.12502
rthumb 13.7907 -46.0098
lclavicle -1.52567e-014 2.62396e-014
lhumerus -56.6274 12.0285 83.387
lradius 39.1381
lwrist 0.94546
lhand -10.4841 28.1784
lfingers 7.12502
lthumb 15.5174 57.5757
rfemur -47.7535 11.3118 21.3097
rtibia 39.6664
rfoot -21.7334 -17.6099
rtoes 8.64548
lfemur -66.4545 -3.25758 -21.3588
ltibia 46.2147
lfoot -7.78512 11.0845
ltoes -18.7534
564
root 6.82697 22.411 -8.0299 -150.133 5.03946 178.548
lowerback -3.30045 -4.27615 -8.42239
upperback -15.3988 -3.30762 4.70674
thorax -14.4271 0.996524 10.0495
lowerneck -9.41306 -4.70332 -5.36977
upperneck 48.1793 9.76858 -8.59573
head 22.2307 4.83869 -0.336336
rclavicle -3.62285e-014 1.82882e-014
rhumerus -55.9116 25.6917 -90.4844
rradius 49.8393
rwrist 0.562289
rhand -12.2703 -16.4126
rfingers 7.12502
rthumb 13.7965 -45.9351
lclavicle -3.62285e-014 1.82882e-014
lhumerus -56.7515 12.2272 83.2958
lradius 39.1133
lwrist 0.917731
lhand -10.5285 28.175
lfingers 7.12502
lthumb 15.4747 57.5756
rfemur -47.1638 11.4636 21.2631
rtibia 39.1001
rfoot -21.7769 -17.7112
rtoes 8.55135
lfemur -65.8621 -3.6309 -20.7126
ltibia 43.8596
lfoot -7.24149 11.3065
ltoes -18.68
565
root 6.81686 22.4302 -8.11113 -150.124 5.13226 178.613
lowerback -3.50102 -4.29157 -8.35285
upperback -15.4294 -3.28144 4.75945
thorax -14.3451 1.00934 10.0561
lowerneck -9.39473 -4.67655 -5.34747
upperneck 48.1841 9.88303 -8.68036
head 22.2557 4.88759 -0.359165
rclavicle 2.89232e-014 -2.38542e-014
rhumerus -55.967 25.8035 -90.5632
rradius 49.5473
rwrist 0.611353
rhand -12.2772 -16.3313
rfingers 7.12502
rthumb 13.7899 -45.8542
lclavicle 2.89232e-014 -2.38542e-014
lhumerus -56.8858 12.4316 83.1939
lradius 39.0972
lwrist 0.890561
lhand -10.578 28.1737
lfingers 7.12502
lthumb 15.427 57.578
rfemur -46.5737 11.6072 21.2383
rtibia 38.5431
rfoot -21.8178 -17.8024
rtoes 8.4341
lfemur -65.248 -4.03609 -20.0169
ltibia 41.5935
lfoot -6.61309 11.6507
ltoes -18.5488
566
root 6.80645 22.4477 -8.19381 -150.112 5.22497 178.688
lowerback -3.68446 -4.3107 -8.28278
upperback -15.4747 -3.25737 4.82117
thorax -14.2921 1.02672 10.0749
lowerneck -9.36355 -4.65115 -5.32617
upperneck 48.1933 10.0036 -8.77015
head 22.282 4.94044 -0.383039
rclavicle -1.88845e-014 3.02153e-014
rhumerus -56.0539 25.908 -90.6366
rradius 49.2493
rwrist 0.660675
rhand -12.2804 -16.2471
rfingers 7.12502
rthumb 13.7868 -45.7703
lclavicle -1.88845e-014 3.02153e-014
lhumerus -57.057 12.6357 83.0901
lradius 39.0784
lwrist 0.866795
lhand -10.6371 28.1617
lfingers 7.12502
lthumb 15.3701 57.5704
rfemur -45.985 11.7463 21.2277
rtibia 37.9938
rfoot -21.8615 -17.8839
rtoes 8.29854
lfemur -64.6231 -4.46458 -19.2888
ltibia 39.4309
lfoot -5.90726 12.1387
ltoes -18.4044
567
root 6.79569 22.4637 -8.27839 -150.1 5.31356 178.778
lowerback -3.87702 -4.33107 -8.19965
upperback -15.5165 -3.23366 4.88762
thorax -14.2292 1.04169 10.0911
lowerneck -9.34536 -4.62858 -5.31078
upperneck 48.2081 10.1121 -8.84524
head 22.3149 4.98727 -0.400521
rclavicle 7.45443e-015 -2.22639e-014
rhumerus -56.1291 25.9903 -90.6836
rradius 48.9489
rwrist 0.753023
rhand -12.2313 -16.1964
rfingers 7.12502
rthumb 13.8341 -45.7163
lclavicle 7.45443e-015 -2.22639e-014
lhumerus -57.2303 12.834 82.9873
lradius 39.0576
lwrist 0.851726
lhand -10.6957 28.1592
lfingers 7.12502
lthumb 15.3136 57.5723
rfemur -45.3905 11.8742 21.2417
rtibia 37.4562
rfoot -21.9127 -17.9501
rtoes 8.13316
lfemur -63.9849 -4.90537 -18.5429
ltibia 37.3868
lfoot -5.18086 12.7619
ltoes -18.1624
568
root 6.78455 22.4783 -8.3654 -150.091 5.39554 178.878
lowerback -4.06932 -4.35554 -8.10935
upperback -15.563 -3.21302 4.96187
thorax -14.1716 1.0565 10.1126
lowerneck -9.32288 -4.61157 -5.30246
upperneck 48.2298 10.2151 -8.91715
head 22.3518 5.03187 -0.415991
rclavicle 2.65874e-014 -1.19271e-014
rhumerus -56.2106 26.0511 -90.7031
rradius 48.6433
rwrist 0.892146
rhand -12.1279 -16.1754
rfingers 7.12502
rthumb 13.9338 -45.6886
lclavicle 2.65874e-014 -1.19271e-014
lhumerus -57.4254 13.0267 82.8892
lradius 39.0349
lwrist 0.843492
lhand -10.7578 28.1312
lfingers 7.12502
lthumb 15.2538 57.5488
rfemur -44.7882 11.9865 21.2762
rtibia 36.9315
rfoot -21.9783 -18
rtoes 7.94832
lfemur -63.3336 -5.3519 -17.8033
ltibia 35.4771
lfoot -4.48335 13.4932
ltoes -17.7636
569
root 6.77296 22.491 -8.45395 -150.107 5.46873 178.978
lowerback -4.23311 -4.38203 -8.02117
upperback -15.6127 -3.19755 5.04107
thorax -14.1348 1.07131 10.1436
lowerneck -9.26939 -4.59319 -5.30314
upperneck 48.2446 10.3135 -8.98284
head 22.3687 5.07579 -0.42806
rclavicle 1.50082e-014 1.51076e-014
rhumerus -56.3004 26.0842 -90.6938
rradius 48.3349
rwrist 1.06646
rhand -11.9852 -16.2008
rfingers 7.12502
rthumb 14.0713 -45.7044
lclavicle 1.50082e-014 1.51076e-014
lhumerus -57.6491 13.2173 82.7936
lradius 39.0124
lwrist 0.834912
lhand -10.7894 28.1307
lfingers 7.12502
lthumb 15.2233 57.5506
rfemur -44.1616 12.0756 21.3285
rtibia 36.4306
rfoot -22.0613 -18.033
rtoes 7.72648
lfemur -62.6571 -5.80161 -17.1
ltibia 33.7161
lfoot -3.84371 14.3084
ltoes -17.3209
